ffmpeg version N-82167-g5e96558 Copyright (c) 2000-2016 the FFmpeg developers
  built with gcc 5.4.0 (Ubuntu 5.4.0-6ubuntu1~16.04.2) 20160609
  configuration: --prefix=/root/ffmpeg_build --pkg-config-flags=--static --extra-cflags=-I/root/ffmpeg_build/include --extra-ldflags=-L/root/ffmpeg_build/lib --bindir=/root/bin --enable-gpl --enable-libass --enable-libfdk-aac --enable-libfreetype --enable-libmp3lame --enable-libopus --enable-libtheora --enable-libvorbis --enable-libx264 --enable-libx265 --enable-nonfree
  libavutil      55. 35.100 / 55. 35.100
  libavcodec     57. 65.100 / 57. 65.100
  libavformat    57. 57.100 / 57. 57.100
  libavdevice    57.  2.100 / 57.  2.100
  libavfilter     6. 66.100 /  6. 66.100
  libswscale      4.  3.100 /  4.  3.100
  libswresample   2.  4.100 /  2.  4.100
  libpostproc    54.  2.100 / 54.  2.100
Input #0, matroska,webm, from '/media/yubikiri/bot/queue/3AnimePahe_Detective_Conan_-_063_720p_Fansub.mkv':
  Metadata:
    title           : 3|Text||0|0
    ALBUM           : Anime
    LANGUAGE        : Undefined
    ENCODER         : Lavf57.57.100
  Duration: 00:24:27.63, start: 0.000000, bitrate: 977 kb/s
    Stream #0:0: Video: mpeg4 (Advanced Simple Profile), yuv420p, 640x480 [SAR 1:1 DAR 4:3], 23.98 fps, 23.98 tbr, 1k tbn, 23.98 tbc (default)
    Metadata:
      DURATION        : 00:24:27.633000000
    Stream #0:1: Audio: mp3, 48000 Hz, stereo, s16p, 128 kb/s (default)
    Metadata:
      DURATION        : 00:24:27.600000000
[libx264 @ 0x24dcdc0] using SAR=1/1
[libx264 @ 0x24dcdc0] using cpu capabilities: MMX2 SSE2Fast SSSE3 SSE4.2 AVX FMA3 AVX2 LZCNT BMI2
[libx264 @ 0x24dcdc0] profile High, level 3.1
[libx264 @ 0x24dcdc0] 264 - core 148 r2643 5c65704 - H.264/MPEG-4 AVC codec - Copyleft 2003-2015 - http://www.videolan.org/x264.html - options: cabac=1 ref=8 deblock=1:1:1 analyse=0x3:0x133 me=umh subme=7 psy=1 psy_rd=0.00:0.00 mixed_ref=1 me_range=8 chroma_me=1 trellis=0 8x8dct=1 cqm=0 deadzone=21,11 fast_pskip=1 chroma_qp_offset=0 threads=8 lookahead_threads=2 sliced_threads=0 nr=0 decimate=1 interlaced=0 bluray_compat=0 constrained_intra=0 bframes=3 b_pyramid=2 b_adapt=2 b_bias=0 direct=1 weightb=1 open_gop=0 weightp=2 keyint=240 keyint_min=24 scenecut=40 intra_refresh=0 rc_lookahead=60 rc=crf mbtree=1 crf=27.0 qcomp=0.60 qpmin=0 qpmax=69 qpstep=4 ip_ratio=1.40 aq=1:1.00
[libfdk_aac @ 0x24da700] Note, the VBR setting is unsupported and only works with some parameter combinations
Output #0, mp4, to '/media/yubikiri/bot/queue/3AnimePahe_Detective_Conan_-_063_720p_Fansub.mkv_encoded.mp4':
  Metadata:
    encoder         : Lavf57.57.100
    Stream #0:0: Video: h264 (libx264) ([33][0][0][0] / 0x0021), yuv420p, 640x480 [SAR 1:1 DAR 4:3], q=-1--1, 23.98 fps, 24k tbn, 23.98 tbc (default)
    Metadata:
      encoder         : Lavc57.65.100 libx264
    Side data:
      cpb: bitrate max/min/avg: 0/0/0 buffer size: 0 vbv_delay: -1
    Stream #0:1: Audio: aac (libfdk_aac) (HE-AACv2) ([64][0][0][0] / 0x0040), 48000 Hz, stereo, s16, 48 kb/s (default)
    Metadata:
      encoder         : Lavc57.65.100 libfdk_aac
Stream mapping:
  Stream #0:0 -> #0:0 (mpeg4 (native) -> h264 (libx264))
  Stream #0:1 -> #0:1 (mp3 (native) -> aac (libfdk_aac))
Press [q] to stop, [?] for help
frame=  114 fps=0.0 q=32.0 size=     101kB time=00:00:04.92 bitrate= 168.2kbits/s dup=1 drop=0 speed=9.78x    frame=  178 fps=176 q=32.0 size=     261kB time=00:00:07.57 bitrate= 281.9kbits/s dup=1 drop=0 speed=7.47x    frame=  250 fps=165 q=32.0 size=     450kB time=00:00:10.60 bitrate= 347.3kbits/s dup=1 drop=0 speed=6.99x    frame=  310 fps=154 q=32.0 size=     601kB time=00:00:13.07 bitrate= 376.3kbits/s dup=1 drop=0 speed=6.48x    frame=  370 fps=147 q=32.0 size=     764kB time=00:00:15.59 bitrate= 401.3kbits/s dup=1 drop=0 speed=6.19x    frame=  448 fps=147 q=32.0 size=     963kB time=00:00:18.83 bitrate= 418.8kbits/s dup=1 drop=0 speed=6.19x    frame=  511 fps=144 q=32.0 size=    1148kB time=00:00:21.48 bitrate= 437.8kbits/s dup=1 drop=0 speed=6.06x    frame=  583 fps=144 q=32.0 size=    1291kB time=00:00:24.47 bitrate= 432.2kbits/s dup=1 drop=0 speed=6.04x    frame=  655 fps=143 q=32.0 size=    1445kB time=00:00:27.49 bitrate= 430.3kbits/s dup=1 drop=0 speed=6.02x    frame=  760 fps=150 q=32.0 size=    1576kB time=00:00:31.85 bitrate= 405.4kbits/s dup=1 drop=0 speed=6.28x    frame=  825 fps=148 q=32.0 size=    1742kB time=00:00:34.53 bitrate= 413.1kbits/s dup=1 drop=0 speed=6.18x    frame=  909 fps=149 q=32.0 size=    1872kB time=00:00:38.08 bitrate= 402.7kbits/s dup=1 drop=0 speed=6.25x    frame=  969 fps=147 q=32.0 size=    2033kB time=00:00:40.59 bitrate= 410.2kbits/s dup=1 drop=0 speed=6.16x    frame= 1019 fps=144 q=32.0 size=    2215kB time=00:00:42.64 bitrate= 425.4kbits/s dup=1 drop=0 speed=6.01x    frame= 1089 fps=143 q=32.0 size=    2398kB time=00:00:45.59 bitrate= 431.0kbits/s dup=1 drop=0 speed=   6x    frame= 1158 fps=142 q=32.0 size=    2577kB time=00:00:48.44 bitrate= 435.8kbits/s dup=1 drop=0 speed=5.95x    frame= 1216 fps=141 q=32.0 size=    2768kB time=00:00:50.88 bitrate= 445.7kbits/s dup=1 drop=0 speed=5.89x    frame= 1272 fps=139 q=32.0 size=    2917kB time=00:00:53.22 bitrate= 449.0kbits/s dup=1 drop=0 speed=5.82x    frame= 1347 fps=140 q=32.0 size=    3089kB time=00:00:56.34 bitrate= 449.1kbits/s dup=1 drop=0 speed=5.84x    frame= 1439 fps=142 q=32.0 size=    3200kB time=00:01:00.18 bitrate= 435.6kbits/s dup=1 drop=0 speed=5.93x    frame= 1503 fps=141 q=32.0 size=    3299kB time=00:01:02.87 bitrate= 429.8kbits/s dup=1 drop=0 speed= 5.9x    frame= 1564 fps=140 q=32.0 size=    3411kB time=00:01:05.38 bitrate= 427.3kbits/s dup=1 drop=0 speed=5.85x    frame= 1611 fps=138 q=32.0 size=    3538kB time=00:01:07.35 bitrate= 430.3kbits/s dup=1 drop=0 speed=5.75x    frame= 1663 fps=136 q=32.0 size=    3660kB time=00:01:09.52 bitrate= 431.2kbits/s dup=1 drop=0 speed=5.69x    frame= 1716 fps=135 q=32.0 size=    3783kB time=00:01:11.74 bitrate= 431.9kbits/s dup=1 drop=0 speed=5.64x    frame= 1802 fps=136 q=32.0 size=    3932kB time=00:01:15.28 bitrate= 427.8kbits/s dup=1 drop=0 speed=5.69x    frame= 1865 fps=136 q=32.0 size=    4079kB time=00:01:17.93 bitrate= 428.8kbits/s dup=1 drop=0 speed=5.68x    frame= 1939 fps=136 q=32.0 size=    4200kB time=00:01:21.00 bitrate= 424.8kbits/s dup=1 drop=0 speed=5.69x    frame= 1996 fps=135 q=32.0 size=    4347kB time=00:01:23.39 bitrate= 427.0kbits/s dup=1 drop=0 speed=5.66x    frame= 2027 fps=133 q=32.0 size=    4488kB time=00:01:24.71 bitrate= 434.0kbits/s dup=1 drop=0 speed=5.54x    frame= 2065 fps=131 q=32.0 size=    4671kB time=00:01:26.25 bitrate= 443.7kbits/s dup=1 drop=0 speed=5.46x    frame= 2101 fps=129 q=32.0 size=    4774kB time=00:01:27.78 bitrate= 445.5kbits/s dup=1 drop=0 speed=5.39x    frame= 2160 fps=129 q=32.0 size=    4907kB time=00:01:30.21 bitrate= 445.5kbits/s dup=1 drop=0 speed=5.37x    frame= 2244 fps=130 q=32.0 size=    5027kB time=00:01:33.71 bitrate= 439.5kbits/s dup=1 drop=0 speed=5.42x    frame= 2374 fps=133 q=32.0 size=    5153kB time=00:01:39.17 bitrate= 425.6kbits/s dup=1 drop=0 speed=5.56x    frame= 2497 fps=136 q=32.0 size=    5276kB time=00:01:44.29 bitrate= 414.4kbits/s dup=1 drop=0 speed=5.69x    frame= 2571 fps=137 q=32.0 size=    5428kB time=00:01:47.41 bitrate= 413.9kbits/s dup=1 drop=0 speed=5.71x    frame= 2629 fps=136 q=32.0 size=    5561kB time=00:01:49.80 bitrate= 414.9kbits/s dup=1 drop=0 speed=5.68x    frame= 2684 fps=135 q=32.0 size=    5723kB time=00:01:52.10 bitrate= 418.2kbits/s dup=1 drop=0 speed=5.65x    frame= 2746 fps=135 q=32.0 size=    5846kB time=00:01:54.66 bitrate= 417.6kbits/s dup=1 drop=0 speed=5.64x    frame= 2778 fps=133 q=32.0 size=    5903kB time=00:01:56.03 bitrate= 416.7kbits/s dup=1 drop=0 speed=5.57x    frame= 2818 fps=132 q=32.0 size=    5978kB time=00:01:57.69 bitrate= 416.1kbits/s dup=1 drop=0 speed=5.52x    frame= 2859 fps=131 q=32.0 size=    6055kB time=00:01:59.40 bitrate= 415.4kbits/s dup=1 drop=0 speed=5.47x    frame= 2926 fps=131 q=32.0 size=    6191kB time=00:02:02.21 bitrate= 414.9kbits/s dup=1 drop=0 speed=5.47x    frame= 2974 fps=130 q=32.0 size=    6256kB time=00:02:04.18 bitrate= 412.7kbits/s dup=1 drop=0 speed=5.44x    frame= 3017 fps=129 q=32.0 size=    6307kB time=00:02:06.01 bitrate= 410.0kbits/s dup=1 drop=0 speed= 5.4x    frame= 3060 fps=128 q=32.0 size=    6360kB time=00:02:07.76 bitrate= 407.8kbits/s dup=1 drop=0 speed=5.36x    frame= 3116 fps=128 q=32.0 size=    6433kB time=00:02:10.11 bitrate= 405.0kbits/s dup=1 drop=0 speed=5.34x    frame= 3176 fps=128 q=32.0 size=    6534kB time=00:02:12.63 bitrate= 403.6kbits/s dup=1 drop=0 speed=5.34x    frame= 3243 fps=128 q=32.0 size=    6614kB time=00:02:15.40 bitrate= 400.1kbits/s dup=1 drop=0 speed=5.34x    frame= 3312 fps=128 q=32.0 size=    6721kB time=00:02:18.30 bitrate= 398.1kbits/s dup=1 drop=0 speed=5.35x    frame= 3378 fps=128 q=32.0 size=    6778kB time=00:02:21.03 bitrate= 393.7kbits/s dup=1 drop=0 speed=5.35x    frame= 3420 fps=127 q=32.0 size=    6877kB time=00:02:22.78 bitrate= 394.6kbits/s dup=1 drop=0 speed=5.31x    frame= 3498 fps=128 q=32.0 size=    6964kB time=00:02:26.07 bitrate= 390.6kbits/s dup=1 drop=0 speed=5.33x    frame= 3571 fps=128 q=32.0 size=    7071kB time=00:02:29.09 bitrate= 388.5kbits/s dup=1 drop=0 speed=5.34x    frame= 3630 fps=128 q=32.0 size=    7127kB time=00:02:31.57 bitrate= 385.2kbits/s dup=1 drop=0 speed=5.34x    frame= 3686 fps=127 q=32.0 size=    7186kB time=00:02:33.87 bitrate= 382.6kbits/s dup=1 drop=0 speed=5.32x    frame= 3742 fps=127 q=32.0 size=    7244kB time=00:02:36.22 bitrate= 379.9kbits/s dup=1 drop=0 speed=5.31x    frame= 3788 fps=126 q=32.0 size=    7348kB time=00:02:38.14 bitrate= 380.6kbits/s dup=1 drop=0 speed=5.28x    frame= 3825 fps=126 q=32.0 size=    7437kB time=00:02:39.68 bitrate= 381.5kbits/s dup=1 drop=0 speed=5.24x    frame= 3853 fps=124 q=32.0 size=    7506kB time=00:02:40.87 bitrate= 382.2kbits/s dup=1 drop=0 speed=5.19x    frame= 3904 fps=124 q=32.0 size=    7582kB time=00:02:42.96 bitrate= 381.1kbits/s dup=1 drop=0 speed=5.17x    frame= 3954 fps=123 q=32.0 size=    7655kB time=00:02:45.05 bitrate= 379.9kbits/s dup=1 drop=0 speed=5.15x    frame= 3983 fps=122 q=32.0 size=    7728kB time=00:02:46.25 bitrate= 380.8kbits/s dup=1 drop=0 speed=5.11x    frame= 4023 fps=122 q=32.0 size=    7794kB time=00:02:47.95 bitrate= 380.1kbits/s dup=1 drop=0 speed=5.08x    frame= 4072 fps=121 q=32.0 size=    7895kB time=00:02:50.00 bitrate= 380.4kbits/s dup=1 drop=0 speed=5.07x    frame= 4115 fps=121 q=32.0 size=    7972kB time=00:02:51.79 bitrate= 380.1kbits/s dup=1 drop=0 speed=5.05x    frame= 4172 fps=121 q=32.0 size=    8066kB time=00:02:54.18 bitrate= 379.3kbits/s dup=1 drop=0 speed=5.04x    frame= 4218 fps=120 q=32.0 size=    8155kB time=00:02:56.10 bitrate= 379.3kbits/s dup=1 drop=0 speed=5.02x    frame= 4272 fps=120 q=32.0 size=    8255kB time=00:02:58.32 bitrate= 379.2kbits/s dup=1 drop=0 speed=5.01x    frame= 4335 fps=120 q=32.0 size=    8320kB time=00:03:00.97 bitrate= 376.6kbits/s dup=1 drop=0 speed=5.02x    frame= 4389 fps=120 q=32.0 size=    8434kB time=00:03:03.23 bitrate= 377.1kbits/s dup=1 drop=0 speed=5.01x    frame= 4443 fps=120 q=32.0 size=    8522kB time=00:03:05.45 bitrate= 376.5kbits/s dup=1 drop=0 speed=   5x    frame= 4508 fps=120 q=32.0 size=    8625kB time=00:03:08.18 bitrate= 375.5kbits/s dup=1 drop=0 speed=5.01x    frame= 4577 fps=120 q=32.0 size=    8681kB time=00:03:11.08 bitrate= 372.2kbits/s dup=1 drop=0 speed=5.02x    frame= 4637 fps=120 q=32.0 size=    8801kB time=00:03:13.60 bitrate= 372.4kbits/s dup=1 drop=0 speed=5.02x    frame= 4694 fps=120 q=32.0 size=    8867kB time=00:03:15.94 bitrate= 370.7kbits/s dup=1 drop=0 speed=5.01x    frame= 4737 fps=120 q=32.0 size=    8983kB time=00:03:17.73 bitrate= 372.1kbits/s dup=1 drop=0 speed=4.99x    frame= 4793 fps=119 q=32.0 size=    9069kB time=00:03:20.04 bitrate= 371.4kbits/s dup=1 drop=0 speed=4.99x    frame= 4849 fps=119 q=32.0 size=    9134kB time=00:03:22.39 bitrate= 369.7kbits/s dup=1 drop=0 speed=4.98x    frame= 4921 fps=120 q=32.0 size=    9248kB time=00:03:25.41 bitrate= 368.8kbits/s dup=1 drop=0 speed=4.99x    frame= 4996 fps=120 q=32.0 size=    9338kB time=00:03:28.53 bitrate= 366.8kbits/s dup=1 drop=0 speed=   5x    frame= 5058 fps=120 q=32.0 size=    9409kB time=00:03:31.13 bitrate= 365.0kbits/s dup=1 drop=0 speed=   5x    frame= 5112 fps=120 q=32.0 size=    9472kB time=00:03:33.39 bitrate= 363.6kbits/s dup=1 drop=0 speed=4.99x    frame= 5161 fps=119 q=32.0 size=    9584kB time=00:03:35.40 bitrate= 364.5kbits/s dup=1 drop=0 speed=4.98x    frame= 5220 fps=119 q=32.0 size=    9634kB time=00:03:37.87 bitrate= 362.2kbits/s dup=1 drop=0 speed=4.98x    frame= 5288 fps=120 q=32.0 size=    9756kB time=00:03:40.69 bitrate= 362.1kbits/s dup=1 drop=0 speed=4.99x    frame= 5345 fps=119 q=32.0 size=    9827kB time=00:03:43.08 bitrate= 360.9kbits/s dup=1 drop=0 speed=4.98x    frame= 5407 fps=119 q=32.0 size=    9898kB time=00:03:45.68 bitrate= 359.3kbits/s dup=1 drop=0 speed=4.98x    frame= 5475 fps=120 q=32.0 size=   10007kB time=00:03:48.50 bitrate= 358.8kbits/s dup=1 drop=0 speed=4.99x    frame= 5540 fps=120 q=32.0 size=   10068kB time=00:03:51.23 bitrate= 356.7kbits/s dup=1 drop=0 speed=   5x    frame= 5597 fps=120 q=32.0 size=   10173kB time=00:03:53.57 bitrate= 356.8kbits/s dup=1 drop=0 speed=4.99x    frame= 5652 fps=119 q=32.0 size=   10237kB time=00:03:55.88 bitrate= 355.5kbits/s dup=1 drop=0 speed=4.98x    frame= 5686 fps=119 q=32.0 size=   10357kB time=00:03:57.29 bitrate= 357.6kbits/s dup=1 drop=0 speed=4.96x    frame= 5750 fps=119 q=32.0 size=   10441kB time=00:03:59.97 bitrate= 356.4kbits/s dup=1 drop=0 speed=4.96x    frame= 5820 fps=119 q=32.0 size=   10539kB time=00:04:02.88 bitrate= 355.5kbits/s dup=1 drop=0 speed=4.97x    frame= 5891 fps=119 q=32.0 size=   10613kB time=00:04:05.86 bitrate= 353.6kbits/s dup=1 drop=0 speed=4.98x    frame= 5959 fps=119 q=32.0 size=   10719kB time=00:04:08.68 bitrate= 353.1kbits/s dup=1 drop=0 speed=4.98x    frame= 6019 fps=119 q=32.0 size=   10789kB time=00:04:11.20 bitrate= 351.8kbits/s dup=1 drop=0 speed=4.98x    frame= 6102 fps=120 q=32.0 size=   10882kB time=00:04:14.65 bitrate= 350.1kbits/s dup=1 drop=0 speed=   5x    frame= 6164 fps=120 q=32.0 size=   10952kB time=00:04:17.25 bitrate= 348.8kbits/s dup=1 drop=0 speed=   5x    frame= 6200 fps=119 q=32.0 size=   11019kB time=00:04:18.75 bitrate= 348.9kbits/s dup=1 drop=0 speed=4.98x    frame= 6242 fps=119 q=32.0 size=   11098kB time=00:04:20.50 bitrate= 349.0kbits/s dup=1 drop=0 speed=4.96x    frame= 6281 fps=119 q=32.0 size=   11178kB time=00:04:22.12 bitrate= 349.3kbits/s dup=1 drop=0 speed=4.95x    frame= 6320 fps=118 q=32.0 size=   11284kB time=00:04:23.74 bitrate= 350.5kbits/s dup=1 drop=0 speed=4.93x    frame= 6366 fps=118 q=32.0 size=   11376kB time=00:04:25.70 bitrate= 350.7kbits/s dup=1 drop=0 speed=4.92x    frame= 6430 fps=118 q=32.0 size=   11464kB time=00:04:28.35 bitrate= 350.0kbits/s dup=1 drop=0 speed=4.92x    frame= 6504 fps=118 q=32.0 size=   11532kB time=00:04:31.42 bitrate= 348.1kbits/s dup=1 drop=0 speed=4.93x    frame= 6566 fps=118 q=32.0 size=   11609kB time=00:04:34.02 bitrate= 347.0kbits/s dup=1 drop=0 speed=4.93x    frame= 6603 fps=118 q=32.0 size=   11726kB time=00:04:35.56 bitrate= 348.6kbits/s dup=1 drop=0 speed=4.92x    frame= 6667 fps=118 q=32.0 size=   11800kB time=00:04:38.25 bitrate= 347.4kbits/s dup=1 drop=0 speed=4.92x    frame= 6733 fps=118 q=32.0 size=   11864kB time=00:04:40.98 bitrate= 345.9kbits/s dup=1 drop=0 speed=4.92x    frame= 6803 fps=118 q=32.0 size=   11968kB time=00:04:43.88 bitrate= 345.3kbits/s dup=1 drop=0 speed=4.93x    frame= 6869 fps=118 q=32.0 size=   12055kB time=00:04:46.69 bitrate= 344.4kbits/s dup=1 drop=0 speed=4.94x    frame= 6953 fps=119 q=32.0 size=   12171kB time=00:04:50.15 bitrate= 343.6kbits/s dup=1 drop=0 speed=4.95x    frame= 7031 fps=119 q=32.0 size=   12245kB time=00:04:53.39 bitrate= 341.9kbits/s dup=1 drop=0 speed=4.96x    frame= 7119 fps=119 q=32.0 size=   12358kB time=00:04:57.06 bitrate= 340.8kbits/s dup=1 drop=0 speed=4.98x    frame= 7182 fps=119 q=32.0 size=   12439kB time=00:04:59.71 bitrate= 340.0kbits/s dup=1 drop=0 speed=4.99x    frame= 7257 fps=120 q=32.0 size=   12505kB time=00:05:02.82 bitrate= 338.3kbits/s dup=1 drop=0 speed=   5x    frame= 7331 fps=120 q=32.0 size=   12614kB time=00:05:05.94 bitrate= 337.8kbits/s dup=1 drop=0 speed=5.01x    frame= 7400 fps=120 q=32.0 size=   12669kB time=00:05:08.80 bitrate= 336.1kbits/s dup=1 drop=0 speed=5.01x    frame= 7465 fps=120 q=32.0 size=   12744kB time=00:05:11.53 bitrate= 335.1kbits/s dup=1 drop=0 speed=5.02x    frame= 7540 fps=120 q=32.0 size=   12871kB time=00:05:14.64 bitrate= 335.1kbits/s dup=1 drop=0 speed=5.02x    frame= 7603 fps=120 q=32.0 size=   12987kB time=00:05:17.24 bitrate= 335.3kbits/s dup=1 drop=0 speed=5.03x    frame= 7667 fps=120 q=32.0 size=   13077kB time=00:05:19.93 bitrate= 334.8kbits/s dup=1 drop=0 speed=5.03x    frame= 7729 fps=121 q=32.0 size=   13183kB time=00:05:22.49 bitrate= 334.9kbits/s dup=1 drop=0 speed=5.03x    frame= 7777 fps=120 q=32.0 size=   13281kB time=00:05:24.54 bitrate= 335.2kbits/s dup=1 drop=0 speed=5.02x    frame= 7838 fps=120 q=32.0 size=   13403kB time=00:05:27.06 bitrate= 335.7kbits/s dup=1 drop=0 speed=5.02x    frame= 7890 fps=120 q=32.0 size=   13543kB time=00:05:29.23 bitrate= 337.0kbits/s dup=1 drop=0 speed=5.01x    frame= 7939 fps=120 q=32.0 size=   13695kB time=00:05:31.28 bitrate= 338.7kbits/s dup=1 drop=0 speed=5.01x    frame= 7993 fps=120 q=32.0 size=   13800kB time=00:05:33.54 bitrate= 338.9kbits/s dup=1 drop=0 speed=   5x    frame= 8067 fps=120 q=32.0 size=   13947kB time=00:05:36.61 bitrate= 339.4kbits/s dup=1 drop=0 speed=5.01x    frame= 8137 fps=120 q=32.0 size=   14044kB time=00:05:39.56 bitrate= 338.8kbits/s dup=1 drop=0 speed=5.02x    frame= 8206 fps=120 q=32.0 size=   14129kB time=00:05:42.42 bitrate= 338.0kbits/s dup=1 drop=0 speed=5.02x    frame= 8271 fps=120 q=32.0 size=   14276kB time=00:05:45.11 bitrate= 338.9kbits/s dup=1 drop=0 speed=5.02x    frame= 8324 fps=120 q=32.0 size=   14419kB time=00:05:47.32 bitrate= 340.1kbits/s dup=1 drop=0 speed=5.02x    frame= 8401 fps=120 q=32.0 size=   14548kB time=00:05:50.52 bitrate= 340.0kbits/s dup=1 drop=0 speed=5.02x    frame= 8475 fps=121 q=32.0 size=   14633kB time=00:05:53.64 bitrate= 339.0kbits/s dup=1 drop=0 speed=5.03x    frame= 8550 fps=121 q=32.0 size=   14694kB time=00:05:56.75 bitrate= 337.4kbits/s dup=1 drop=0 speed=5.04x    frame= 8596 fps=121 q=32.0 size=   14787kB time=00:05:58.67 bitrate= 337.7kbits/s dup=1 drop=0 speed=5.03x    frame= 8674 fps=121 q=32.0 size=   14938kB time=00:06:01.96 bitrate= 338.1kbits/s dup=1 drop=0 speed=5.04x    frame= 8734 fps=121 q=32.0 size=   15068kB time=00:06:04.43 bitrate= 338.7kbits/s dup=1 drop=0 speed=5.04x    frame= 8786 fps=121 q=32.0 size=   15256kB time=00:06:06.61 bitrate= 340.9kbits/s dup=1 drop=0 speed=5.03x    frame= 8832 fps=120 q=32.0 size=   15376kB time=00:06:08.53 bitrate= 341.8kbits/s dup=1 drop=0 speed=5.02x    frame= 8896 fps=120 q=32.0 size=   15498kB time=00:06:11.22 bitrate= 342.0kbits/s dup=1 drop=0 speed=5.02x    frame= 8963 fps=120 q=32.0 size=   15649kB time=00:06:13.99 bitrate= 342.8kbits/s dup=1 drop=0 speed=5.03x    frame= 9028 fps=121 q=32.0 size=   15740kB time=00:06:16.68 bitrate= 342.3kbits/s dup=1 drop=0 speed=5.03x    frame= 9112 fps=121 q=32.0 size=   15859kB time=00:06:20.22 bitrate= 341.7kbits/s dup=1 drop=0 speed=5.04x    frame= 9171 fps=121 q=32.0 size=   16020kB time=00:06:22.61 bitrate= 343.0kbits/s dup=1 drop=0 speed=5.04x    frame= 9220 fps=121 q=32.0 size=   16179kB time=00:06:24.70 bitrate= 344.5kbits/s dup=1 drop=0 speed=5.03x    frame= 9259 fps=120 q=32.0 size=   16296kB time=00:06:26.36 bitrate= 345.5kbits/s dup=1 drop=0 speed=5.02x    frame= 9302 fps=120 q=32.0 size=   16488kB time=00:06:28.11 bitrate= 348.0kbits/s dup=1 drop=0 speed=5.01x    frame= 9383 fps=120 q=32.0 size=   16607kB time=00:06:31.48 bitrate= 347.5kbits/s dup=1 drop=0 speed=5.02x    frame= 9451 fps=120 q=32.0 size=   16707kB time=00:06:34.34 bitrate= 347.1kbits/s dup=1 drop=0 speed=5.03x    frame= 9514 fps=120 q=32.0 size=   16802kB time=00:06:36.99 bitrate= 346.7kbits/s dup=1 drop=0 speed=5.03x    frame= 9573 fps=120 q=32.0 size=   16943kB time=00:06:39.42 bitrate= 347.5kbits/s dup=1 drop=0 speed=5.03x    frame= 9639 fps=121 q=32.0 size=   17031kB time=00:06:42.15 bitrate= 346.9kbits/s dup=1 drop=0 speed=5.03x    frame= 9707 fps=121 q=32.0 size=   17171kB time=00:06:45.01 bitrate= 347.3kbits/s dup=1 drop=0 speed=5.03x    frame= 9763 fps=121 q=32.0 size=   17280kB time=00:06:47.36 bitrate= 347.5kbits/s dup=1 drop=0 speed=5.03x    frame= 9817 fps=120 q=32.0 size=   17406kB time=00:06:49.62 bitrate= 348.1kbits/s dup=1 drop=0 speed=5.03x    frame= 9846 fps=120 q=32.0 size=   17524kB time=00:06:50.81 bitrate= 349.4kbits/s dup=1 drop=0 speed=5.01x    frame= 9888 fps=120 q=32.0 size=   17631kB time=00:06:52.56 bitrate= 350.1kbits/s dup=1 drop=0 speed=   5x    frame= 9944 fps=120 q=32.0 size=   17763kB time=00:06:54.95 bitrate= 350.7kbits/s dup=1 drop=0 speed=   5x    frame= 9987 fps=120 q=32.0 size=   17928kB time=00:06:56.70 bitrate= 352.4kbits/s dup=1 drop=0 speed=4.99x    frame=10035 fps=119 q=32.0 size=   18037kB time=00:06:58.71 bitrate= 352.9kbits/s dup=1 drop=0 speed=4.98x    frame=10111 fps=120 q=32.0 size=   18175kB time=00:07:01.86 bitrate= 352.9kbits/s dup=1 drop=0 speed=4.99x    frame=10186 fps=120 q=32.0 size=   18308kB time=00:07:04.98 bitrate= 352.9kbits/s dup=1 drop=0 speed=   5x    frame=10253 fps=120 q=32.0 size=   18431kB time=00:07:07.79 bitrate= 352.9kbits/s dup=1 drop=0 speed=   5x    frame=10319 fps=120 q=32.0 size=   18540kB time=00:07:10.52 bitrate= 352.8kbits/s dup=1 drop=0 speed=   5x    frame=10378 fps=120 q=32.0 size=   18645kB time=00:07:13.00 bitrate= 352.7kbits/s dup=1 drop=0 speed=   5x    frame=10430 fps=120 q=32.0 size=   18855kB time=00:07:15.17 bitrate= 354.9kbits/s dup=1 drop=0 speed=4.99x    frame=10484 fps=120 q=32.0 size=   18991kB time=00:07:17.44 bitrate= 355.6kbits/s dup=1 drop=0 speed=4.99x    frame=10556 fps=120 q=32.0 size=   19121kB time=00:07:20.42 bitrate= 355.6kbits/s dup=1 drop=0 speed=   5x    frame=10613 fps=120 q=32.0 size=   19216kB time=00:07:22.81 bitrate= 355.5kbits/s dup=1 drop=0 speed=4.99x    frame=10650 fps=119 q=32.0 size=   19325kB time=00:07:24.35 bitrate= 356.3kbits/s dup=1 drop=0 speed=4.98x    frame=10690 fps=119 q=32.0 size=   19445kB time=00:07:26.01 bitrate= 357.1kbits/s dup=1 drop=0 speed=4.97x    frame=10735 fps=119 q=32.0 size=   19546kB time=00:07:27.89 bitrate= 357.5kbits/s dup=1 drop=0 speed=4.97x    frame=10786 fps=119 q=32.0 size=   19660kB time=00:07:30.02 bitrate= 357.9kbits/s dup=1 drop=0 speed=4.96x    frame=10826 fps=119 q=32.0 size=   19771kB time=00:07:31.69 bitrate= 358.6kbits/s dup=1 drop=0 speed=4.95x    frame=10865 fps=118 q=32.0 size=   19839kB time=00:07:33.31 bitrate= 358.5kbits/s dup=1 drop=0 speed=4.94x    frame=10919 fps=118 q=32.0 size=   19952kB time=00:07:35.57 bitrate= 358.8kbits/s dup=1 drop=0 speed=4.94x    frame=10972 fps=118 q=32.0 size=   20059kB time=00:07:37.79 bitrate= 359.0kbits/s dup=1 drop=0 speed=4.94x    frame=11051 fps=118 q=32.0 size=   20185kB time=00:07:41.07 bitrate= 358.6kbits/s dup=1 drop=0 speed=4.94x    frame=11101 fps=118 q=32.0 size=   20276kB time=00:07:43.16 bitrate= 358.6kbits/s dup=1 drop=0 speed=4.94x    frame=11146 fps=118 q=32.0 size=   20371kB time=00:07:45.04 bitrate= 358.8kbits/s dup=1 drop=0 speed=4.93x    frame=11191 fps=118 q=32.0 size=   20455kB time=00:07:46.92 bitrate= 358.9kbits/s dup=1 drop=0 speed=4.93x    frame=11243 fps=118 q=32.0 size=   20602kB time=00:07:49.09 bitrate= 359.8kbits/s dup=1 drop=0 speed=4.92x    frame=11273 fps=118 q=32.0 size=   20705kB time=00:07:50.33 bitrate= 360.6kbits/s dup=1 drop=0 speed=4.91x    frame=11310 fps=117 q=32.0 size=   20815kB time=00:07:51.87 bitrate= 361.4kbits/s dup=1 drop=0 speed= 4.9x    frame=11353 fps=117 q=32.0 size=   20953kB time=00:07:53.62 bitrate= 362.4kbits/s dup=1 drop=0 speed=4.89x    frame=11393 fps=117 q=32.0 size=   21107kB time=00:07:55.32 bitrate= 363.8kbits/s dup=1 drop=0 speed=4.88x    frame=11454 fps=117 q=32.0 size=   21248kB time=00:07:57.88 bitrate= 364.2kbits/s dup=1 drop=0 speed=4.88x    frame=11557 fps=118 q=32.0 size=   21354kB time=00:08:02.19 bitrate= 362.8kbits/s dup=1 drop=0 speed= 4.9x    frame=11646 fps=118 q=32.0 size=   21452kB time=00:08:05.91 bitrate= 361.7kbits/s dup=1 drop=0 speed=4.92x    frame=11722 fps=118 q=32.0 size=   21572kB time=00:08:09.06 bitrate= 361.3kbits/s dup=1 drop=0 speed=4.92x    frame=11815 fps=118 q=32.0 size=   21678kB time=00:08:12.95 bitrate= 360.3kbits/s dup=1 drop=0 speed=4.94x    frame=11883 fps=118 q=32.0 size=   21763kB time=00:08:15.76 bitrate= 359.6kbits/s dup=1 drop=0 speed=4.94x    frame=11946 fps=118 q=32.0 size=   21849kB time=00:08:18.41 bitrate= 359.1kbits/s dup=1 drop=0 speed=4.94x    frame=11991 fps=118 q=32.0 size=   21915kB time=00:08:20.28 bitrate= 358.8kbits/s dup=1 drop=0 speed=4.93x    frame=12036 fps=118 q=32.0 size=   21984kB time=00:08:22.16 bitrate= 358.6kbits/s dup=1 drop=0 speed=4.93x    frame=12084 fps=118 q=32.0 size=   22054kB time=00:08:24.17 bitrate= 358.3kbits/s dup=1 drop=0 speed=4.92x    frame=12158 fps=118 q=32.0 size=   22161kB time=00:08:27.24 bitrate= 357.9kbits/s dup=1 drop=0 speed=4.93x    frame=12238 fps=118 q=32.0 size=   22241kB time=00:08:30.57 bitrate= 356.8kbits/s dup=1 drop=0 speed=4.94x    frame=12311 fps=118 q=32.0 size=   22346kB time=00:08:33.60 bitrate= 356.4kbits/s dup=1 drop=0 speed=4.94x    frame=12402 fps=119 q=32.0 size=   22428kB time=00:08:37.39 bitrate= 355.1kbits/s dup=1 drop=0 speed=4.96x    frame=12489 fps=119 q=32.0 size=   22555kB time=00:08:41.06 bitrate= 354.6kbits/s dup=1 drop=0 speed=4.97x    frame=12585 fps=119 q=32.0 size=   22637kB time=00:08:45.03 bitrate= 353.2kbits/s dup=1 drop=0 speed=4.98x    frame=12672 fps=120 q=32.0 size=   22707kB time=00:08:48.70 bitrate= 351.8kbits/s dup=1 drop=0 speed=4.99x    frame=12760 fps=120 q=32.0 size=   22819kB time=00:08:52.37 bitrate= 351.1kbits/s dup=1 drop=0 speed=   5x    frame=12847 fps=120 q=32.0 size=   22924kB time=00:08:56.00 bitrate= 350.4kbits/s dup=1 drop=0 speed=5.01x    frame=12929 fps=120 q=32.0 size=   23039kB time=00:08:59.41 bitrate= 349.9kbits/s dup=1 drop=0 speed=5.02x    frame=13005 fps=120 q=32.0 size=   23112kB time=00:09:02.57 bitrate= 349.0kbits/s dup=1 drop=0 speed=5.03x    frame=13064 fps=120 q=32.0 size=   23206kB time=00:09:05.04 bitrate= 348.8kbits/s dup=1 drop=0 speed=5.02x    frame=13091 fps=120 q=32.0 size=   23298kB time=00:09:06.15 bitrate= 349.5kbits/s dup=1 drop=0 speed=5.01x    frame=13145 fps=120 q=32.0 size=   23404kB time=00:09:08.41 bitrate= 349.6kbits/s dup=1 drop=0 speed=5.01x    frame=13207 fps=120 q=32.0 size=   23463kB time=00:09:10.97 bitrate= 348.8kbits/s dup=1 drop=0 speed=5.01x    frame=13272 fps=120 q=32.0 size=   23526kB time=00:09:13.70 bitrate= 348.1kbits/s dup=1 drop=0 speed=5.01x    frame=13331 fps=120 q=32.0 size=   23633kB time=00:09:16.18 bitrate= 348.1kbits/s dup=1 drop=0 speed=5.01x    frame=13387 fps=120 q=32.0 size=   23734kB time=00:09:18.48 bitrate= 348.1kbits/s dup=1 drop=0 speed=5.01x    frame=13447 fps=120 q=32.0 size=   23806kB time=00:09:21.00 bitrate= 347.6kbits/s dup=1 drop=0 speed=5.01x    frame=13511 fps=120 q=32.0 size=   23876kB time=00:09:23.69 bitrate= 347.0kbits/s dup=1 drop=0 speed=5.01x    frame=13571 fps=120 q=32.0 size=   23993kB time=00:09:26.16 bitrate= 347.2kbits/s dup=1 drop=0 speed=5.01x    frame=13642 fps=120 q=32.0 size=   24083kB time=00:09:29.15 bitrate= 346.6kbits/s dup=1 drop=0 speed=5.01x    frame=13712 fps=120 q=32.0 size=   24190kB time=00:09:32.05 bitrate= 346.4kbits/s dup=1 drop=0 speed=5.01x    frame=13787 fps=120 q=32.0 size=   24290kB time=00:09:35.16 bitrate= 346.0kbits/s dup=1 drop=0 speed=5.02x    frame=13863 fps=120 q=32.0 size=   24344kB time=00:09:38.36 bitrate= 344.8kbits/s dup=1 drop=0 speed=5.02x    frame=13922 fps=120 q=32.0 size=   24443kB time=00:09:40.84 bitrate= 344.7kbits/s dup=1 drop=0 speed=5.02x    frame=13962 fps=120 q=32.0 size=   24541kB time=00:09:42.46 bitrate= 345.1kbits/s dup=1 drop=0 speed=5.02x    frame=14017 fps=120 q=32.0 size=   24636kB time=00:09:44.76 bitrate= 345.1kbits/s dup=1 drop=0 speed=5.01x    frame=14084 fps=120 q=32.0 size=   24701kB time=00:09:47.58 bitrate= 344.4kbits/s dup=1 drop=0 speed=5.02x    frame=14144 fps=120 q=32.0 size=   24770kB time=00:09:50.05 bitrate= 343.9kbits/s dup=1 drop=0 speed=5.02x    frame=14219 fps=120 q=32.0 size=   24842kB time=00:09:53.21 bitrate= 343.1kbits/s dup=1 drop=0 speed=5.02x    frame=14298 fps=121 q=32.0 size=   24983kB time=00:09:56.50 bitrate= 343.1kbits/s dup=1 drop=0 speed=5.03x    frame=14366 fps=121 q=32.0 size=   25055kB time=00:09:59.36 bitrate= 342.5kbits/s dup=1 drop=0 speed=5.03x    frame=14436 fps=121 q=32.0 size=   25176kB time=00:10:02.26 bitrate= 342.5kbits/s dup=1 drop=0 speed=5.03x    frame=14514 fps=121 q=32.0 size=   25255kB time=00:10:05.50 bitrate= 341.7kbits/s dup=1 drop=0 speed=5.04x    frame=14595 fps=121 q=32.0 size=   25339kB time=00:10:08.91 bitrate= 340.9kbits/s dup=1 drop=0 speed=5.05x    frame=14659 fps=121 q=32.0 size=   25434kB time=00:10:11.56 bitrate= 340.7kbits/s dup=1 drop=0 speed=5.05x    frame=14727 fps=121 q=32.0 size=   25546kB time=00:10:14.37 bitrate= 340.6kbits/s dup=1 drop=0 speed=5.05x    frame=14797 fps=121 q=32.0 size=   25625kB time=00:10:17.32 bitrate= 340.1kbits/s dup=1 drop=0 speed=5.05x    frame=14873 fps=121 q=32.0 size=   25724kB time=00:10:20.48 bitrate= 339.6kbits/s dup=1 drop=0 speed=5.06x    frame=14928 fps=121 q=32.0 size=   25793kB time=00:10:22.78 bitrate= 339.3kbits/s dup=1 drop=0 speed=5.05x    frame=14996 fps=121 q=32.0 size=   25868kB time=00:10:25.60 bitrate= 338.7kbits/s dup=1 drop=0 speed=5.05x    frame=15066 fps=121 q=32.0 size=   25963kB time=00:10:28.54 bitrate= 338.4kbits/s dup=1 drop=0 speed=5.06x    frame=15151 fps=121 q=32.0 size=   26047kB time=00:10:32.08 bitrate= 337.6kbits/s dup=1 drop=0 speed=5.06x    frame=15219 fps=121 q=32.0 size=   26112kB time=00:10:34.90 bitrate= 336.9kbits/s dup=1 drop=0 speed=5.07x    frame=15284 fps=121 q=32.0 size=   26239kB time=00:10:37.67 bitrate= 337.1kbits/s dup=1 drop=0 speed=5.07x    frame=15362 fps=122 q=32.0 size=   26309kB time=00:10:40.87 bitrate= 336.3kbits/s dup=1 drop=0 speed=5.07x    frame=15415 fps=122 q=32.0 size=   26397kB time=00:10:43.09 bitrate= 336.3kbits/s dup=1 drop=0 speed=5.07x    frame=15467 fps=121 q=32.0 size=   26501kB time=00:10:45.27 bitrate= 336.4kbits/s dup=1 drop=0 speed=5.07x    frame=15535 fps=122 q=32.0 size=   26587kB time=00:10:48.08 bitrate= 336.1kbits/s dup=1 drop=0 speed=5.07x    frame=15607 fps=122 q=29.0 size=   26671kB time=00:10:51.11 bitrate= 335.6kbits/s dup=1 drop=0 speed=5.07x    frame=15679 fps=122 q=32.0 size=   26768kB time=00:10:54.10 bitrate= 335.2kbits/s dup=1 drop=0 speed=5.08x    frame=15754 fps=122 q=32.0 size=   26851kB time=00:10:57.25 bitrate= 334.7kbits/s dup=1 drop=0 speed=5.08x    frame=15835 fps=122 q=32.0 size=   26937kB time=00:11:00.58 bitrate= 334.1kbits/s dup=1 drop=0 speed=5.09x    frame=15904 fps=122 q=32.0 size=   27047kB time=00:11:03.48 bitrate= 333.9kbits/s dup=1 drop=0 speed=5.09x    frame=15979 fps=122 q=32.0 size=   27106kB time=00:11:06.60 bitrate= 333.1kbits/s dup=1 drop=0 speed=5.09x    frame=16055 fps=122 q=32.0 size=   27178kB time=00:11:09.80 bitrate= 332.4kbits/s dup=1 drop=0 speed= 5.1x    frame=16126 fps=122 q=32.0 size=   27275kB time=00:11:12.74 bitrate= 332.1kbits/s dup=1 drop=0 speed= 5.1x    frame=16191 fps=122 q=32.0 size=   27393kB time=00:11:15.43 bitrate= 332.2kbits/s dup=1 drop=0 speed= 5.1x    frame=16233 fps=122 q=32.0 size=   27455kB time=00:11:17.22 bitrate= 332.1kbits/s dup=1 drop=0 speed=5.09x    frame=16276 fps=122 q=32.0 size=   27511kB time=00:11:19.01 bitrate= 331.9kbits/s dup=1 drop=0 speed=5.09x    frame=16335 fps=122 q=32.0 size=   27622kB time=00:11:21.45 bitrate= 332.1kbits/s dup=1 drop=0 speed=5.09x    frame=16405 fps=122 q=32.0 size=   27700kB time=00:11:24.39 bitrate= 331.6kbits/s dup=1 drop=0 speed=5.09x    frame=16476 fps=122 q=32.0 size=   27771kB time=00:11:27.33 bitrate= 331.0kbits/s dup=1 drop=0 speed=5.09x    frame=16535 fps=122 q=32.0 size=   27830kB time=00:11:29.81 bitrate= 330.5kbits/s dup=1 drop=0 speed=5.09x    frame=16597 fps=122 q=32.0 size=   27934kB time=00:11:32.41 bitrate= 330.5kbits/s dup=1 drop=0 speed=5.09x    frame=16657 fps=122 q=32.0 size=   28056kB time=00:11:34.89 bitrate= 330.7kbits/s dup=1 drop=0 speed=5.09x    frame=16719 fps=122 q=32.0 size=   28166kB time=00:11:37.49 bitrate= 330.8kbits/s dup=1 drop=0 speed=5.09x    frame=16773 fps=122 q=32.0 size=   28264kB time=00:11:39.75 bitrate= 330.9kbits/s dup=1 drop=0 speed=5.09x    frame=16826 fps=122 q=32.0 size=   28380kB time=00:11:41.93 bitrate= 331.2kbits/s dup=1 drop=0 speed=5.09x    frame=16885 fps=122 q=32.0 size=   28461kB time=00:11:44.40 bitrate= 331.0kbits/s dup=1 drop=0 speed=5.09x    frame=16950 fps=122 q=32.0 size=   28543kB time=00:11:47.09 bitrate= 330.7kbits/s dup=1 drop=0 speed=5.09x    frame=17001 fps=122 q=32.0 size=   28626kB time=00:11:49.22 bitrate= 330.6kbits/s dup=1 drop=0 speed=5.08x    frame=17056 fps=122 q=32.0 size=   28734kB time=00:11:51.53 bitrate= 330.8kbits/s dup=1 drop=0 speed=5.08x    frame=17119 fps=122 q=32.0 size=   28807kB time=00:11:54.17 bitrate= 330.4kbits/s dup=1 drop=0 speed=5.08x    frame=17172 fps=122 q=32.0 size=   28917kB time=00:11:56.39 bitrate= 330.7kbits/s dup=1 drop=0 speed=5.08x    frame=17220 fps=122 q=32.0 size=   29021kB time=00:11:58.35 bitrate= 330.9kbits/s dup=1 drop=0 speed=5.07x    frame=17271 fps=122 q=32.0 size=   29131kB time=00:12:00.49 bitrate= 331.2kbits/s dup=1 drop=0 speed=5.07x    frame=17320 fps=121 q=32.0 size=   29214kB time=00:12:02.53 bitrate= 331.2kbits/s dup=1 drop=0 speed=5.06x    frame=17350 fps=121 q=32.0 size=   29314kB time=00:12:03.77 bitrate= 331.8kbits/s dup=1 drop=0 speed=5.05x    frame=17411 fps=121 q=32.0 size=   29395kB time=00:12:06.33 bitrate= 331.5kbits/s dup=1 drop=0 speed=5.05x    frame=17475 fps=121 q=32.0 size=   29471kB time=00:12:09.02 bitrate= 331.2kbits/s dup=1 drop=0 speed=5.06x    frame=17542 fps=121 q=32.0 size=   29566kB time=00:12:11.79 bitrate= 331.0kbits/s dup=1 drop=0 speed=5.06x    frame=17586 fps=121 q=32.0 size=   29699kB time=00:12:13.63 bitrate= 331.6kbits/s dup=1 drop=0 speed=5.05x    frame=17615 fps=121 q=32.0 size=   29778kB time=00:12:14.87 bitrate= 332.0kbits/s dup=1 drop=0 speed=5.04x    frame=17672 fps=121 q=32.0 size=   29881kB time=00:12:17.21 bitrate= 332.0kbits/s dup=1 drop=0 speed=5.04x    frame=17761 fps=121 q=32.0 size=   29951kB time=00:12:20.92 bitrate= 331.2kbits/s dup=1 drop=0 speed=5.05x    frame=17827 fps=121 q=32.0 size=   30020kB time=00:12:23.70 bitrate= 330.7kbits/s dup=1 drop=0 speed=5.05x    frame=17858 fps=121 q=32.0 size=   30127kB time=00:12:24.98 bitrate= 331.3kbits/s dup=1 drop=0 speed=5.04x    frame=17913 fps=121 q=32.0 size=   30231kB time=00:12:27.28 bitrate= 331.4kbits/s dup=1 drop=0 speed=5.04x    frame=17966 fps=121 q=32.0 size=   30308kB time=00:12:29.50 bitrate= 331.3kbits/s dup=1 drop=0 speed=5.04x    frame=18019 fps=121 q=32.0 size=   30403kB time=00:12:31.72 bitrate= 331.3kbits/s dup=1 drop=0 speed=5.03x    frame=18086 fps=121 q=32.0 size=   30469kB time=00:12:34.49 bitrate= 330.8kbits/s dup=1 drop=0 speed=5.04x    frame=18144 fps=121 q=32.0 size=   30558kB time=00:12:36.92 bitrate= 330.7kbits/s dup=1 drop=0 speed=5.03x    frame=18209 fps=121 q=32.0 size=   30632kB time=00:12:39.61 bitrate= 330.3kbits/s dup=1 drop=0 speed=5.04x    frame=18258 fps=121 q=32.0 size=   30772kB time=00:12:41.66 bitrate= 331.0kbits/s dup=1 drop=0 speed=5.03x    frame=18295 fps=120 q=32.0 size=   30885kB time=00:12:43.24 bitrate= 331.5kbits/s dup=1 drop=0 speed=5.03x    frame=18359 fps=121 q=32.0 size=   30966kB time=00:12:45.88 bitrate= 331.2kbits/s dup=1 drop=0 speed=5.03x    frame=18428 fps=120 q=32.0 size=   31029kB time=00:12:48.74 bitrate= 330.6kbits/s dup=1 drop=0 speed=5.03x    frame=18468 fps=120 q=32.0 size=   31175kB time=00:12:50.41 bitrate= 331.5kbits/s dup=1 drop=0 speed=5.02x    frame=18525 fps=120 q=32.0 size=   31289kB time=00:12:52.80 bitrate= 331.7kbits/s dup=1 drop=0 speed=5.02x    frame=18601 fps=120 q=32.0 size=   31350kB time=00:12:55.95 bitrate= 331.0kbits/s dup=1 drop=0 speed=5.02x    frame=18640 fps=120 q=32.0 size=   31425kB time=00:12:57.57 bitrate= 331.1kbits/s dup=1 drop=0 speed=5.02x    frame=18704 fps=120 q=32.0 size=   31544kB time=00:13:00.26 bitrate= 331.2kbits/s dup=1 drop=0 speed=5.02x    frame=18778 fps=120 q=32.0 size=   31605kB time=00:13:03.33 bitrate= 330.5kbits/s dup=1 drop=0 speed=5.02x    frame=18828 fps=120 q=32.0 size=   31706kB time=00:13:05.43 bitrate= 330.7kbits/s dup=1 drop=0 speed=5.02x    frame=18856 fps=120 q=32.0 size=   31805kB time=00:13:06.58 bitrate= 331.2kbits/s dup=1 drop=0 speed=5.01x    frame=18937 fps=120 q=32.0 size=   31893kB time=00:13:09.99 bitrate= 330.7kbits/s dup=1 drop=0 speed=5.02x    frame=19003 fps=120 q=32.0 size=   31949kB time=00:13:12.72 bitrate= 330.2kbits/s dup=1 drop=0 speed=5.02x    frame=19051 fps=120 q=32.0 size=   32016kB time=00:13:14.73 bitrate= 330.0kbits/s dup=1 drop=0 speed=5.01x    frame=19108 fps=120 q=32.0 size=   32096kB time=00:13:17.12 bitrate= 329.9kbits/s dup=1 drop=0 speed=5.01x    frame=19168 fps=120 q=32.0 size=   32190kB time=00:13:19.63 bitrate= 329.8kbits/s dup=1 drop=0 speed=5.01x    frame=19215 fps=120 q=32.0 size=   32271kB time=00:13:21.55 bitrate= 329.8kbits/s dup=1 drop=0 speed=5.01x    frame=19273 fps=120 q=32.0 size=   32362kB time=00:13:23.99 bitrate= 329.7kbits/s dup=1 drop=0 speed=5.01x    frame=19311 fps=120 q=32.0 size=   32469kB time=00:13:25.56 bitrate= 330.2kbits/s dup=1 drop=0 speed=   5x    frame=19356 fps=120 q=32.0 size=   32538kB time=00:13:27.44 bitrate= 330.1kbits/s dup=1 drop=0 speed=   5x    frame=19398 fps=120 q=32.0 size=   32590kB time=00:13:29.19 bitrate= 329.9kbits/s dup=1 drop=0 speed=4.99x    frame=19461 fps=120 q=32.0 size=   32693kB time=00:13:31.84 bitrate= 329.9kbits/s dup=1 drop=0 speed=   5x    frame=19529 fps=120 q=32.0 size=   32763kB time=00:13:34.69 bitrate= 329.4kbits/s dup=1 drop=0 speed=   5x    frame=19581 fps=120 q=32.0 size=   32859kB time=00:13:36.83 bitrate= 329.5kbits/s dup=1 drop=0 speed=4.99x    frame=19645 fps=120 q=32.0 size=   32987kB time=00:13:39.52 bitrate= 329.7kbits/s dup=1 drop=0 speed=   5x    frame=19703 fps=120 q=32.0 size=   33060kB time=00:13:41.91 bitrate= 329.5kbits/s dup=1 drop=0 speed=4.99x    frame=19750 fps=120 q=32.0 size=   33162kB time=00:13:43.91 bitrate= 329.7kbits/s dup=1 drop=0 speed=4.99x    frame=19808 fps=120 q=32.0 size=   33250kB time=00:13:46.30 bitrate= 329.6kbits/s dup=1 drop=0 speed=4.99x    frame=19876 fps=120 q=32.0 size=   33351kB time=00:13:49.16 bitrate= 329.5kbits/s dup=1 drop=0 speed=4.99x    frame=19942 fps=120 q=32.0 size=   33416kB time=00:13:51.89 bitrate= 329.1kbits/s dup=1 drop=0 speed=4.99x    frame=19982 fps=120 q=32.0 size=   33500kB time=00:13:53.55 bitrate= 329.2kbits/s dup=1 drop=0 speed=4.99x    frame=20015 fps=119 q=32.0 size=   33593kB time=00:13:54.96 bitrate= 329.6kbits/s dup=1 drop=0 speed=4.98x    frame=20079 fps=119 q=32.0 size=   33712kB time=00:13:57.61 bitrate= 329.7kbits/s dup=1 drop=0 speed=4.98x    frame=20151 fps=119 q=32.0 size=   33801kB time=00:14:00.64 bitrate= 329.4kbits/s dup=1 drop=0 speed=4.98x    frame=20218 fps=120 q=32.0 size=   33915kB time=00:14:03.41 bitrate= 329.4kbits/s dup=1 drop=0 speed=4.99x    frame=20297 fps=120 q=32.0 size=   33989kB time=00:14:06.69 bitrate= 328.9kbits/s dup=1 drop=0 speed=4.99x    frame=20376 fps=120 q=32.0 size=   34091kB time=00:14:10.02 bitrate= 328.5kbits/s dup=1 drop=0 speed=4.99x    frame=20461 fps=120 q=32.0 size=   34144kB time=00:14:13.56 bitrate= 327.7kbits/s dup=1 drop=0 speed=   5x    frame=20539 fps=120 q=32.0 size=   34203kB time=00:14:16.81 bitrate= 327.0kbits/s dup=1 drop=0 speed=   5x    frame=20590 fps=120 q=32.0 size=   34337kB time=00:14:18.94 bitrate= 327.5kbits/s dup=1 drop=0 speed=   5x    frame=20636 fps=120 q=32.0 size=   34425kB time=00:14:20.86 bitrate= 327.6kbits/s dup=1 drop=0 speed=   5x    frame=20681 fps=120 q=32.0 size=   34502kB time=00:14:22.74 bitrate= 327.6kbits/s dup=1 drop=0 speed=   5x    frame=20723 fps=120 q=32.0 size=   34582kB time=00:14:24.49 bitrate= 327.7kbits/s dup=1 drop=0 speed=4.99x    frame=20777 fps=120 q=32.0 size=   34681kB time=00:14:26.75 bitrate= 327.8kbits/s dup=1 drop=0 speed=4.99x    frame=20834 fps=120 q=32.0 size=   34767kB time=00:14:29.09 bitrate= 327.7kbits/s dup=1 drop=0 speed=4.99x    frame=20899 fps=120 q=32.0 size=   34845kB time=00:14:31.83 bitrate= 327.4kbits/s dup=1 drop=0 speed=4.99x    frame=20951 fps=120 q=32.0 size=   34893kB time=00:14:33.96 bitrate= 327.1kbits/s dup=1 drop=0 speed=4.99x    frame=20999 fps=119 q=32.0 size=   34991kB time=00:14:36.01 bitrate= 327.2kbits/s dup=1 drop=0 speed=4.98x    frame=21067 fps=120 q=29.0 size=   35071kB time=00:14:38.82 bitrate= 326.9kbits/s dup=1 drop=0 speed=4.99x    frame=21130 fps=120 q=32.0 size=   35159kB time=00:14:41.43 bitrate= 326.8kbits/s dup=1 drop=0 speed=4.99x    frame=21184 fps=120 q=32.0 size=   35236kB time=00:14:43.69 bitrate= 326.6kbits/s dup=1 drop=0 speed=4.99x    frame=21239 fps=119 q=32.0 size=   35305kB time=00:14:45.99 bitrate= 326.4kbits/s dup=1 drop=0 speed=4.98x    frame=21306 fps=120 q=32.0 size=   35368kB time=00:14:48.81 bitrate= 326.0kbits/s dup=1 drop=0 speed=4.99x    frame=21386 fps=120 q=32.0 size=   35464kB time=00:14:52.13 bitrate= 325.6kbits/s dup=1 drop=0 speed=4.99x    frame=21460 fps=120 q=32.0 size=   35531kB time=00:14:55.21 bitrate= 325.1kbits/s dup=1 drop=0 speed=4.99x    frame=21532 fps=120 q=32.0 size=   35609kB time=00:14:58.24 bitrate= 324.8kbits/s dup=1 drop=0 speed=   5x    frame=21599 fps=120 q=32.0 size=   35706kB time=00:15:01.01 bitrate= 324.6kbits/s dup=1 drop=0 speed=   5x    frame=21661 fps=120 q=32.0 size=   35762kB time=00:15:03.57 bitrate= 324.2kbits/s dup=1 drop=0 speed=   5x    frame=21727 fps=120 q=32.0 size=   35847kB time=00:15:06.34 bitrate= 324.0kbits/s dup=1 drop=0 speed=   5x    frame=21781 fps=120 q=32.0 size=   35916kB time=00:15:08.60 bitrate= 323.8kbits/s dup=1 drop=0 speed=   5x    frame=21843 fps=120 q=32.0 size=   35981kB time=00:15:11.16 bitrate= 323.5kbits/s dup=1 drop=0 speed=   5x    frame=21909 fps=120 q=32.0 size=   36066kB time=00:15:13.94 bitrate= 323.3kbits/s dup=1 drop=0 speed=   5x    frame=21975 fps=120 q=32.0 size=   36131kB time=00:15:16.71 bitrate= 322.9kbits/s dup=1 drop=0 speed=   5x    frame=22028 fps=120 q=32.0 size=   36203kB time=00:15:18.89 bitrate= 322.8kbits/s dup=1 drop=0 speed=   5x    frame=22088 fps=120 q=32.0 size=   36295kB time=00:15:21.40 bitrate= 322.7kbits/s dup=1 drop=0 speed=   5x    frame=22162 fps=120 q=32.0 size=   36372kB time=00:15:24.52 bitrate= 322.3kbits/s dup=1 drop=0 speed=   5x    frame=22224 fps=120 q=32.0 size=   36430kB time=00:15:27.08 bitrate= 321.9kbits/s dup=1 drop=0 speed=   5x    frame=22281 fps=120 q=32.0 size=   36494kB time=00:15:29.47 bitrate= 321.6kbits/s dup=1 drop=0 speed=   5x    frame=22349 fps=120 q=32.0 size=   36569kB time=00:15:32.28 bitrate= 321.3kbits/s dup=1 drop=0 speed=   5x    frame=22389 fps=120 q=32.0 size=   36636kB time=00:15:33.95 bitrate= 321.3kbits/s dup=1 drop=0 speed=   5x    frame=22427 fps=120 q=32.0 size=   36715kB time=00:15:35.53 bitrate= 321.5kbits/s dup=1 drop=0 speed=4.99x    frame=22462 fps=120 q=32.0 size=   36781kB time=00:15:37.02 bitrate= 321.6kbits/s dup=1 drop=0 speed=4.99x    frame=22523 fps=120 q=32.0 size=   36901kB time=00:15:39.54 bitrate= 321.7kbits/s dup=1 drop=0 speed=4.99x    frame=22595 fps=120 q=32.0 size=   37002kB time=00:15:42.57 bitrate= 321.6kbits/s dup=1 drop=0 speed=4.99x    frame=22672 fps=120 q=32.0 size=   37065kB time=00:15:45.77 bitrate= 321.0kbits/s dup=1 drop=0 speed=4.99x    frame=22745 fps=120 q=32.0 size=   37133kB time=00:15:48.80 bitrate= 320.6kbits/s dup=1 drop=0 speed=   5x    frame=22820 fps=120 q=32.0 size=   37233kB time=00:15:51.91 bitrate= 320.4kbits/s dup=1 drop=0 speed=   5x    frame=22896 fps=120 q=32.0 size=   37288kB time=00:15:55.11 bitrate= 319.8kbits/s dup=1 drop=0 speed=   5x    frame=22963 fps=120 q=32.0 size=   37376kB time=00:15:57.88 bitrate= 319.6kbits/s dup=1 drop=0 speed=   5x    frame=23040 fps=120 q=32.0 size=   37463kB time=00:16:01.13 bitrate= 319.3kbits/s dup=1 drop=0 speed=5.01x    frame=23117 fps=120 q=32.0 size=   37558kB time=00:16:04.33 bitrate= 319.1kbits/s dup=1 drop=0 speed=5.01x    frame=23194 fps=120 q=32.0 size=   37658kB time=00:16:07.53 bitrate= 318.8kbits/s dup=1 drop=0 speed=5.02x    frame=23258 fps=120 q=32.0 size=   37757kB time=00:16:10.21 bitrate= 318.8kbits/s dup=1 drop=0 speed=5.02x    frame=23331 fps=120 q=32.0 size=   37821kB time=00:16:13.24 bitrate= 318.3kbits/s dup=1 drop=0 speed=5.02x    frame=23392 fps=120 q=32.0 size=   37898kB time=00:16:15.76 bitrate= 318.2kbits/s dup=1 drop=0 speed=5.02x    frame=23474 fps=120 q=32.0 size=   38009kB time=00:16:19.22 bitrate= 318.0kbits/s dup=1 drop=0 speed=5.02x    frame=23551 fps=120 q=32.0 size=   38086kB time=00:16:22.42 bitrate= 317.6kbits/s dup=1 drop=0 speed=5.03x    frame=23628 fps=121 q=32.0 size=   38173kB time=00:16:25.62 bitrate= 317.3kbits/s dup=1 drop=0 speed=5.03x    frame=23700 fps=121 q=32.0 size=   38252kB time=00:16:28.65 bitrate= 317.0kbits/s dup=1 drop=0 speed=5.03x    frame=23770 fps=121 q=32.0 size=   38342kB time=00:16:31.55 bitrate= 316.8kbits/s dup=1 drop=0 speed=5.03x    frame=23836 fps=121 q=32.0 size=   38410kB time=00:16:34.32 bitrate= 316.5kbits/s dup=1 drop=0 speed=5.04x    frame=23908 fps=121 q=32.0 size=   38471kB time=00:16:37.31 bitrate= 316.0kbits/s dup=1 drop=0 speed=5.04x    frame=23968 fps=121 q=32.0 size=   38564kB time=00:16:39.83 bitrate= 316.0kbits/s dup=1 drop=0 speed=5.04x    frame=24019 fps=121 q=32.0 size=   38638kB time=00:16:41.96 bitrate= 315.9kbits/s dup=1 drop=0 speed=5.03x    frame=24074 fps=121 q=32.0 size=   38733kB time=00:16:44.26 bitrate= 316.0kbits/s dup=1 drop=0 speed=5.03x    frame=24122 fps=121 q=32.0 size=   38797kB time=00:16:46.23 bitrate= 315.9kbits/s dup=1 drop=0 speed=5.03x    frame=24173 fps=121 q=32.0 size=   38871kB time=00:16:48.36 bitrate= 315.8kbits/s dup=1 drop=0 speed=5.03x    frame=24229 fps=120 q=32.0 size=   38957kB time=00:16:50.71 bitrate= 315.8kbits/s dup=1 drop=0 speed=5.03x    frame=24298 fps=121 q=32.0 size=   39070kB time=00:16:53.61 bitrate= 315.8kbits/s dup=1 drop=0 speed=5.03x    frame=24376 fps=121 q=32.0 size=   39177kB time=00:16:56.81 bitrate= 315.6kbits/s dup=1 drop=0 speed=5.03x    frame=24457 fps=121 q=32.0 size=   39244kB time=00:17:00.22 bitrate= 315.1kbits/s dup=1 drop=0 speed=5.04x    frame=24540 fps=121 q=32.0 size=   39375kB time=00:17:03.68 bitrate= 315.1kbits/s dup=1 drop=0 speed=5.04x    frame=24616 fps=121 q=32.0 size=   39441kB time=00:17:06.83 bitrate= 314.7kbits/s dup=1 drop=0 speed=5.04x    frame=24693 fps=121 q=32.0 size=   39580kB time=00:17:10.03 bitrate= 314.8kbits/s dup=1 drop=0 speed=5.05x    frame=24748 fps=121 q=32.0 size=   39690kB time=00:17:12.34 bitrate= 315.0kbits/s dup=1 drop=0 speed=5.04x    frame=24820 fps=121 q=32.0 size=   39790kB time=00:17:15.37 bitrate= 314.8kbits/s dup=1 drop=0 speed=5.05x    frame=24884 fps=121 q=32.0 size=   39867kB time=00:17:18.01 bitrate= 314.6kbits/s dup=1 drop=0 speed=5.05x    frame=24929 fps=121 q=32.0 size=   39931kB time=00:17:19.89 bitrate= 314.6kbits/s dup=1 drop=0 speed=5.04x    frame=24982 fps=121 q=32.0 size=   40020kB time=00:17:22.11 bitrate= 314.6kbits/s dup=1 drop=0 speed=5.04x    frame=25028 fps=121 q=32.0 size=   40144kB time=00:17:24.03 bitrate= 315.0kbits/s dup=1 drop=0 speed=5.04x    frame=25087 fps=121 q=32.0 size=   40224kB time=00:17:26.50 bitrate= 314.9kbits/s dup=1 drop=0 speed=5.04x    frame=25127 fps=121 q=32.0 size=   40291kB time=00:17:28.17 bitrate= 314.9kbits/s dup=1 drop=0 speed=5.03x    frame=25194 fps=121 q=32.0 size=   40396kB time=00:17:30.94 bitrate= 314.9kbits/s dup=1 drop=0 speed=5.04x    frame=25259 fps=121 q=32.0 size=   40469kB time=00:17:33.67 bitrate= 314.6kbits/s dup=1 drop=0 speed=5.04x    frame=25327 fps=121 q=32.0 size=   40538kB time=00:17:36.49 bitrate= 314.3kbits/s dup=1 drop=0 speed=5.04x    frame=25385 fps=121 q=32.0 size=   40619kB time=00:17:38.92 bitrate= 314.2kbits/s dup=1 drop=0 speed=5.04x    frame=25440 fps=121 q=32.0 size=   40698kB time=00:17:41.22 bitrate= 314.2kbits/s dup=1 drop=0 speed=5.04x    frame=25475 fps=121 q=32.0 size=   40763kB time=00:17:42.67 bitrate= 314.2kbits/s dup=1 drop=0 speed=5.03x    frame=25520 fps=121 q=32.0 size=   40852kB time=00:17:44.55 bitrate= 314.4kbits/s dup=1 drop=0 speed=5.03x    frame=25569 fps=120 q=32.0 size=   40918kB time=00:17:46.60 bitrate= 314.3kbits/s dup=1 drop=0 speed=5.03x    frame=25626 fps=120 q=32.0 size=   41016kB time=00:17:48.99 bitrate= 314.3kbits/s dup=1 drop=0 speed=5.03x    frame=25694 fps=120 q=32.0 size=   41111kB time=00:17:51.80 bitrate= 314.2kbits/s dup=1 drop=0 speed=5.03x    frame=25758 fps=121 q=32.0 size=   41167kB time=00:17:54.49 bitrate= 313.9kbits/s dup=1 drop=0 speed=5.03x    frame=25820 fps=121 q=32.0 size=   41224kB time=00:17:57.05 bitrate= 313.5kbits/s dup=1 drop=0 speed=5.03x    frame=25890 fps=121 q=32.0 size=   41273kB time=00:18:00.00 bitrate= 313.1kbits/s dup=1 drop=0 speed=5.03x    frame=25939 fps=121 q=32.0 size=   41372kB time=00:18:02.04 bitrate= 313.2kbits/s dup=1 drop=0 speed=5.03x    frame=25978 fps=120 q=32.0 size=   41494kB time=00:18:03.62 bitrate= 313.7kbits/s dup=1 drop=0 speed=5.02x    frame=26060 fps=120 q=32.0 size=   41570kB time=00:18:07.08 bitrate= 313.3kbits/s dup=1 drop=0 speed=5.03x    frame=26150 fps=121 q=32.0 size=   41670kB time=00:18:10.83 bitrate= 312.9kbits/s dup=1 drop=0 speed=5.03x    frame=26233 fps=121 q=32.0 size=   41761kB time=00:18:14.29 bitrate= 312.6kbits/s dup=1 drop=0 speed=5.03x    frame=26313 fps=121 q=32.0 size=   41833kB time=00:18:17.62 bitrate= 312.2kbits/s dup=1 drop=0 speed=5.04x    frame=26395 fps=121 q=32.0 size=   41896kB time=00:18:21.03 bitrate= 311.7kbits/s dup=1 drop=0 speed=5.04x    frame=26460 fps=121 q=32.0 size=   41953kB time=00:18:23.76 bitrate= 311.4kbits/s dup=1 drop=0 speed=5.04x    frame=26502 fps=121 q=32.0 size=   42060kB time=00:18:25.51 bitrate= 311.7kbits/s dup=1 drop=0 speed=5.04x    frame=26547 fps=121 q=32.0 size=   42151kB time=00:18:27.39 bitrate= 311.8kbits/s dup=1 drop=0 speed=5.04x    frame=26600 fps=121 q=32.0 size=   42234kB time=00:18:29.61 bitrate= 311.8kbits/s dup=1 drop=0 speed=5.03x    frame=26648 fps=121 q=32.0 size=   42303kB time=00:18:31.61 bitrate= 311.8kbits/s dup=1 drop=0 speed=5.03x    frame=26697 fps=121 q=32.0 size=   42382kB time=00:18:33.62 bitrate= 311.8kbits/s dup=1 drop=0 speed=5.03x    frame=26759 fps=121 q=32.0 size=   42494kB time=00:18:36.22 bitrate= 311.9kbits/s dup=1 drop=0 speed=5.03x    frame=26830 fps=121 q=32.0 size=   42559kB time=00:18:39.21 bitrate= 311.5kbits/s dup=1 drop=0 speed=5.03x    frame=26889 fps=121 q=32.0 size=   42621kB time=00:18:41.64 bitrate= 311.3kbits/s dup=1 drop=0 speed=5.03x    frame=26949 fps=121 q=32.0 size=   42703kB time=00:18:44.16 bitrate= 311.2kbits/s dup=1 drop=0 speed=5.03x    frame=26988 fps=121 q=32.0 size=   42762kB time=00:18:45.78 bitrate= 311.2kbits/s dup=1 drop=0 speed=5.03x    frame=27019 fps=120 q=32.0 size=   42825kB time=00:18:47.10 bitrate= 311.3kbits/s dup=1 drop=0 speed=5.02x    frame=27062 fps=120 q=32.0 size=   42872kB time=00:18:48.85 bitrate= 311.1kbits/s dup=1 drop=0 speed=5.02x    frame=27122 fps=120 q=32.0 size=   42994kB time=00:18:51.37 bitrate= 311.3kbits/s dup=1 drop=0 speed=5.02x    frame=27191 fps=120 q=32.0 size=   43065kB time=00:18:54.23 bitrate= 311.0kbits/s dup=1 drop=0 speed=5.02x    frame=27274 fps=120 q=32.0 size=   43132kB time=00:18:57.72 bitrate= 310.6kbits/s dup=1 drop=0 speed=5.02x    frame=27371 fps=121 q=32.0 size=   43237kB time=00:19:01.73 bitrate= 310.2kbits/s dup=1 drop=0 speed=5.03x    frame=27431 fps=121 q=32.0 size=   43295kB time=00:19:04.25 bitrate= 310.0kbits/s dup=1 drop=0 speed=5.03x    frame=27502 fps=121 q=32.0 size=   43381kB time=00:19:07.24 bitrate= 309.8kbits/s dup=1 drop=0 speed=5.03x    frame=27549 fps=121 q=32.0 size=   43501kB time=00:19:09.20 bitrate= 310.1kbits/s dup=1 drop=0 speed=5.03x    frame=27596 fps=120 q=32.0 size=   43626kB time=00:19:11.12 bitrate= 310.5kbits/s dup=1 drop=0 speed=5.03x    frame=27678 fps=121 q=32.0 size=   43702kB time=00:19:14.58 bitrate= 310.1kbits/s dup=1 drop=0 speed=5.03x    frame=27760 fps=121 q=32.0 size=   43771kB time=00:19:17.99 bitrate= 309.7kbits/s dup=1 drop=0 speed=5.03x    frame=27854 fps=121 q=32.0 size=   43874kB time=00:19:21.92 bitrate= 309.3kbits/s dup=1 drop=0 speed=5.04x    frame=27936 fps=121 q=32.0 size=   43966kB time=00:19:25.33 bitrate= 309.1kbits/s dup=1 drop=0 speed=5.04x    frame=28004 fps=121 q=32.0 size=   44072kB time=00:19:28.15 bitrate= 309.1kbits/s dup=1 drop=0 speed=5.04x    frame=28072 fps=121 q=32.0 size=   44138kB time=00:19:30.96 bitrate= 308.8kbits/s dup=1 drop=0 speed=5.05x    frame=28143 fps=121 q=32.0 size=   44269kB time=00:19:33.95 bitrate= 308.9kbits/s dup=1 drop=0 speed=5.05x    frame=28233 fps=121 q=32.0 size=   44342kB time=00:19:37.70 bitrate= 308.4kbits/s dup=1 drop=0 speed=5.05x    frame=28329 fps=121 q=32.0 size=   44462kB time=00:19:41.71 bitrate= 308.2kbits/s dup=1 drop=0 speed=5.06x    frame=28428 fps=121 q=32.0 size=   44558kB time=00:19:45.85 bitrate= 307.8kbits/s dup=1 drop=0 speed=5.07x    frame=28498 fps=121 q=32.0 size=   44667kB time=00:19:48.75 bitrate= 307.8kbits/s dup=1 drop=0 speed=5.07x    frame=28558 fps=121 q=32.0 size=   44783kB time=00:19:51.27 bitrate= 308.0kbits/s dup=1 drop=0 speed=5.07x    frame=28619 fps=121 q=32.0 size=   44895kB time=00:19:53.79 bitrate= 308.1kbits/s dup=1 drop=0 speed=5.07x    